<?xml version="1.0" encoding="UTF-8" standalone="no"?>
<svg
   xmlns:dc="http://purl.org/dc/elements/1.1/"
   xmlns:cc="http://creativecommons.org/ns#"
   xmlns:rdf="http://www.w3.org/1999/02/22-rdf-syntax-ns#"
   xmlns:svg="http://www.w3.org/2000/svg"
   xmlns="http://www.w3.org/2000/svg"
   xmlns:sodipodi="http://sodipodi.sourceforge.net/DTD/sodipodi-0.dtd"
   xmlns:inkscape="http://www.inkscape.org/namespaces/inkscape"
   width="25.518869"
   height="25.433964"
   viewBox="0 0 25.518868 25.433963"
   version="1.1"
   id="svg26"
   sodipodi:docname="add.svg"
   style="fill:#669999"
   inkscape:version="0.92.4 (5da689c313, 2019-01-14)">
  <metadata
     id="metadata32">
    <rdf:RDF>
      <cc:Work
         rdf:about="">
        <dc:format>image/svg+xml</dc:format>
        <dc:type
           rdf:resource="http://purl.org/dc/dcmitype/StillImage" />
        <dc:title />
      </cc:Work>
    </rdf:RDF>
  </metadata>
  <defs
     id="defs30" />
  <sodipodi:namedview
     pagecolor="#ffffff"
     bordercolor="#666666"
     borderopacity="1"
     objecttolerance="10"
     gridtolerance="10"
     guidetolerance="10"
     inkscape:pageopacity="0"
     inkscape:pageshadow="2"
     inkscape:window-width="1920"
     inkscape:window-height="1017"
     id="namedview28"
     showgrid="false"
     inkscape:zoom="35.333333"
     inkscape:cx="9.9716981"
     inkscape:cy="10.205723"
     inkscape:window-x="-8"
     inkscape:window-y="-8"
     inkscape:window-maximized="1"
     inkscape:current-layer="svg26" />
  <path
     d="M -2.0283019,-2.0566038 H 21.971698 V 21.943396 H -2.0283019 Z"
     id="path22"
     inkscape:connector-curvature="0"
     style="fill:none" />
  <path
     d="M 14.035377,6.3584905 H 11.48349 V 11.445283 H 6.3797168 v 2.543396 H 11.48349 v 5.086792 h 2.551887 V 13.988679 H 19.13915 V 11.445283 H 14.035377 Z M 12.759434,0 C 5.7162264,0 0,5.6972076 0,12.716981 c 0,7.019774 5.7162264,12.716982 12.759434,12.716982 7.043207,0 12.759435,-5.697208 12.759435,-12.716982 C 25.518869,5.6972076 19.802641,0 12.759434,0 Z m 0,22.890566 c -5.6269106,0 -10.2075471,-4.565397 -10.2075471,-10.173585 0,-5.6081886 4.5806365,-10.1735847 10.2075471,-10.1735847 5.626909,0 10.207546,4.5653961 10.207546,10.1735847 0,5.608188 -4.580637,10.173585 -10.207546,10.173585 z"
     id="path24"
     inkscape:connector-curvature="0"
     style="stroke-width:1.27381897" />
</svg>
